<svg data-v-fde0c5aa="" xmlns="http://www.w3.org/2000/svg" viewBox="0 0 300 300" class="iconLeft"><!----><defs data-v-fde0c5aa=""><!----></defs><rect data-v-fde0c5aa="" fill="transparent" x="0" y="0" width="300px" height="300px" class="logo-background-square"></rect><defs data-v-fde0c5aa=""><linearGradient data-v-fde0c5aa="" gradientTransform="rotate(25)" id="ba6c3e4e-75b9-43a2-a3f1-e339d781bedc" x1="0%" y1="0%" x2="100%" y2="0%"><stop data-v-fde0c5aa="" offset="0%" stop-color="#B3B3B3" stop-opacity="1"></stop><stop data-v-fde0c5aa="" offset="100%" stop-color="#59A568" stop-opacity="1"></stop></linearGradient></defs><g data-v-fde0c5aa="" id="f46fe171-96a5-4872-92d2-3d98c09a07f5" fill="url(#ba6c3e4e-75b9-43a2-a3f1-e339d781bedc)" transform="matrix(2.72682785987854,0,0,2.72682785987854,94.23613695323176,135.80686119352112)"><path d="M2.30 10.50L2.30 0C1.20 0 2.11 0 1.02 0L1.02 10.50ZM4.31 10.50L5.59 10.50L5.59 5.46L5.43 2.25L5.47 2.25L6.38 5.35L8.02 10.50L9.38 10.50L9.38 0.04L8.11 0.04L8.11 3.72L8.34 7.71L8.30 7.71L7.22 3.79L6.03 0.04L4.31 0.04ZM12.68 4.93L12.68 1.32L15.69 1.32L15.69 0.06C14 0.06 13.10 0.06 11.41 0.06L11.41 10.50C11.84 10.50 12.26 10.50 12.68 10.50L12.68 6.20L15.20 6.20L15.20 4.93ZM18.41 1.30L19.70 1.30L20.55 2.16L20.55 4.76L19.68 5.70L18.41 5.70ZM18.41 6.97L19.52 6.97L21.15 10.50L22.55 10.50L20.69 6.48L21.83 5.26L21.83 1.64L20.22 0.01L17.14 0.01L17.14 10.50L18.41 10.50ZM23.21 10.50L24.50 10.50L24.91 7.77L27.09 7.77L27.50 10.50L28.78 10.50L27.23 0.01L24.77 0.01ZM26.91 6.50L25.09 6.50L25.86 1.29L26.12 1.29ZM35.90 10.49L37.17 10.49L37.17 0.01L34.66 0.01L34.06 4.17L33.68 7.77L33.64 7.77L33.25 4.12L32.65 0.01C31.51 0.01 31.28 0.01 30.14 0.01L30.14 10.49L31.42 10.49L31.42 1.26L31.57 1.26L32.84 9.60L34.47 9.60L35.74 1.26L35.90 1.26ZM44.28 1.46L42.70-0.13L40.70-0.13L39.12 1.46L39.12 8.86L40.68 10.54L42.70 10.54L44.28 8.86ZM42.15 9.28L41.23 9.28L40.38 8.37L40.38 1.97L41.22 1.13L42.17 1.13L43.01 1.97L43.01 8.37ZM46.27 10.50L47.54 10.50L47.54 5.46L47.39 2.25L47.43 2.25L48.34 5.35L49.98 10.50L51.34 10.50L51.34 0.04L50.06 0.04L50.06 3.72L50.30 7.71L50.26 7.71L49.18 3.79L47.99 0.04L46.27 0.04ZM54.61 10.50L54.61 0C53.52 0 54.43 0 53.34 0L53.34 10.50ZM57.65 10.50L58.93 10.50L58.93 1.15L60.79 1.15L60.79 0L55.80 0L55.80 1.15L57.65 1.15Z"></path></g><defs data-v-fde0c5aa=""><linearGradient data-v-fde0c5aa="" gradientTransform="rotate(25)" id="8c56a931-2b59-49b4-ad44-b7f911f12aac" x1="0%" y1="0%" x2="100%" y2="0%"><stop data-v-fde0c5aa="" offset="0%" stop-color="#59A568" stop-opacity="1"></stop><stop data-v-fde0c5aa="" offset="100%" stop-color="#B3B3B3" stop-opacity="1"></stop></linearGradient></defs><g data-v-fde0c5aa="" id="9869c3dd-0bda-4ba0-a9a7-d75d5717386e" stroke="none" fill="url(#8c56a931-2b59-49b4-ad44-b7f911f12aac)" transform="matrix(0.9365425705909729,0,0,0.9365425705909729,39.71903704739835,127.52298031526529)"><path d="M44.7 19.4H28.6V3.3h-1v17.1h17.1zM3.3 20.4h17.1V3.3h-1v16.1H3.3zM3.3 28.6h16.1v16.1h1V27.6H3.3zM44.7 27.6H27.6v17.1h1V28.6h16.1z"></path><path d="M32.7 4.8v10.5h10.4c.2.9 1 1.6 2 1.6 1.2 0 2.1-.9 2.1-2.1 0-1.2-.9-2.1-2.1-2.1-1 0-1.8.7-2 1.6h-9.4V4.8c.9-.2 1.6-1 1.6-2 0-1.2-.9-2.1-2.1-2.1s-2.1.9-2.1 2.1c0 1 .7 1.8 1.6 2zm12.4 8.9c.6 0 1.1.5 1.1 1.1s-.5 1.1-1.1 1.1-1.1-.5-1.1-1.1.5-1.1 1.1-1.1zm-11.9-12c.6 0 1.1.5 1.1 1.1s-.5 1.1-1.1 1.1-1.1-.5-1.1-1.1.5-1.1 1.1-1.1zM2.4 16.8c1 0 1.8-.7 2-1.6h10.5V4.8c.9-.2 1.6-1 1.6-2 0-1.2-.9-2.1-2.1-2.1s-2.1.9-2.1 2.1c0 1 .7 1.8 1.6 2v9.4H4.4c-.2-.9-1-1.6-2-1.6-1.2 0-2.1.9-2.1 2.1 0 1.2.9 2.1 2.1 2.1zm10.9-14c0-.6.5-1.1 1.1-1.1s1.1.5 1.1 1.1-.5 1.1-1.1 1.1-1.1-.5-1.1-1.1zM2.4 13.6c.6 0 1.1.5 1.1 1.1s-.5 1.1-1.1 1.1-1.1-.5-1.1-1.1.5-1.1 1.1-1.1zM14.9 43.2V32.6H4.5c-.2-.9-1-1.6-2-1.6-1.2 0-2.1.9-2.1 2.1s.9 2.1 2.1 2.1c1 0 1.8-.7 2-1.6h9.4v9.6c-.9.2-1.6 1-1.6 2 0 1.2.9 2.1 2.1 2.1s2.1-.9 2.1-2.1c0-1-.7-1.8-1.6-2zm-12.4-9c-.6 0-1.1-.5-1.1-1.1S1.9 32 2.5 32s1.1.5 1.1 1.1-.5 1.1-1.1 1.1zm11.9 12.1c-.6 0-1.1-.5-1.1-1.1s.5-1.1 1.1-1.1 1.1.5 1.1 1.1-.5 1.1-1.1 1.1zM45.2 31.1c-1 0-1.8.7-2 1.6H32.7v10.4c-.9.2-1.6 1-1.6 2 0 1.2.9 2.1 2.1 2.1s2.1-.9 2.1-2.1c0-1-.7-1.8-1.6-2v-9.4h9.5c.2.9 1 1.6 2 1.6 1.2 0 2.1-.9 2.1-2.1s-.9-2.1-2.1-2.1zm-10.9 14c0 .6-.5 1.1-1.1 1.1s-1.1-.5-1.1-1.1.5-1.1 1.1-1.1 1.1.5 1.1 1.1zm10.9-10.8c-.6 0-1.1-.5-1.1-1.1s.5-1.1 1.1-1.1 1.1.5 1.1 1.1-.5 1.1-1.1 1.1zM23.5 3.3h1v1.5h-1zM23.5 31.4h1v3h-1zM23.5 19.6h1v3h-1zM23.5 13.7h1v3h-1zM23.5 7.8h1v3h-1zM23.5 37.3h1v3h-1zM23.5 25.5h1v3h-1zM23.5 43.2h1v1.5h-1zM43.2 23.5h1.5v1h-1.5zM37.2 23.5h3v1h-3zM31.3 23.5h3v1h-3zM7.7 23.5h3v1h-3zM19.5 23.5h3v1h-3zM13.6 23.5h3v1h-3zM25.4 23.5h3v1h-3zM3.3 23.5h1.5v1H3.3z"></path></g><!----></svg>