<svg data-v-423bf9ae="" xmlns="http://www.w3.org/2000/svg" viewBox="0 0 336.10121854014363 60" class="font"><!----><!----><!----><g data-v-423bf9ae="" id="6e136528-a4b3-4d51-b1e8-54fe6c829932" fill="black" transform="matrix(5.6232428550720215,0,0,5.6232428550720215,-5.735711097717285,0.7310213446617126)"><path d="M2.30 10.50L2.30 0C1.20 0 2.11 0 1.02 0L1.02 10.50ZM4.31 10.50L5.59 10.50L5.59 5.46L5.43 2.25L5.47 2.25L6.38 5.35L8.02 10.50L9.38 10.50L9.38 0.04L8.11 0.04L8.11 3.72L8.34 7.71L8.30 7.71L7.22 3.79L6.03 0.04L4.31 0.04ZM12.68 4.93L12.68 1.32L15.69 1.32L15.69 0.06C14 0.06 13.10 0.06 11.41 0.06L11.41 10.50C11.84 10.50 12.26 10.50 12.68 10.50L12.68 6.20L15.20 6.20L15.20 4.93ZM18.41 1.30L19.70 1.30L20.55 2.16L20.55 4.76L19.68 5.70L18.41 5.70ZM18.41 6.97L19.52 6.97L21.15 10.50L22.55 10.50L20.69 6.48L21.83 5.26L21.83 1.64L20.22 0.01L17.14 0.01L17.14 10.50L18.41 10.50ZM23.21 10.50L24.50 10.50L24.91 7.77L27.09 7.77L27.50 10.50L28.78 10.50L27.23 0.01L24.77 0.01ZM26.91 6.50L25.09 6.50L25.86 1.29L26.12 1.29ZM35.90 10.49L37.17 10.49L37.17 0.01L34.66 0.01L34.06 4.17L33.68 7.77L33.64 7.77L33.25 4.12L32.65 0.01C31.51 0.01 31.28 0.01 30.14 0.01L30.14 10.49L31.42 10.49L31.42 1.26L31.57 1.26L32.84 9.60L34.47 9.60L35.74 1.26L35.90 1.26ZM44.28 1.46L42.70-0.13L40.70-0.13L39.12 1.46L39.12 8.86L40.68 10.54L42.70 10.54L44.28 8.86ZM42.15 9.28L41.23 9.28L40.38 8.37L40.38 1.97L41.22 1.13L42.17 1.13L43.01 1.97L43.01 8.37ZM46.27 10.50L47.54 10.50L47.54 5.46L47.39 2.25L47.43 2.25L48.34 5.35L49.98 10.50L51.34 10.50L51.34 0.04L50.06 0.04L50.06 3.72L50.30 7.71L50.26 7.71L49.18 3.79L47.99 0.04L46.27 0.04ZM54.61 10.50L54.61 0C53.52 0 54.43 0 53.34 0L53.34 10.50ZM57.65 10.50L58.93 10.50L58.93 1.15L60.79 1.15L60.79 0L55.80 0L55.80 1.15L57.65 1.15Z"></path></g><!----><!----></svg>